<svg xmlns="http://www.w3.org/2000/svg" version="1.1" xmlns:xlink="http://www.w3.org/1999/xlink" xmlns:svgjs="http://svgjs.dev/svgjs" width="1440" height="560" preserveAspectRatio="none" viewBox="0 0 1440 560"><g mask="url(&quot;#SvgjsMask1000&quot;)" fill="none"><rect width="1440" height="560" x="0" y="0" fill="#0e2a47"></rect><path d="M0,421.284C77.462,423.732,135.971,353.094,193.66,301.341C243.779,256.379,280.087,201.833,311.188,142.115C343.87,79.361,396.05,14.174,378.976,-54.489C361.887,-123.211,272.33,-142.289,226.947,-196.65C180.289,-252.538,173.187,-339.211,110.446,-376.144C43.349,-415.641,-42.997,-422.732,-117.231,-399.252C-190.926,-375.943,-248.457,-316.093,-288.478,-249.968C-324.899,-189.792,-329.659,-117.805,-330.146,-47.468C-330.581,15.333,-315.849,75.22,-291.132,132.955C-265.896,191.902,-231.511,244.224,-185.951,289.345C-130.835,343.931,-77.533,418.834,0,421.284" fill="#0b2239"></path><path d="M1440 983.9390000000001C1529.196 992.456 1636.841 1029.6399999999999 1702.9470000000001 969.154 1771.208 906.696 1716.487 787.7429999999999 1749.068 701.146 1778.209 623.694 1884.836 579.283 1880.731 496.632 1876.666 414.779 1786.356 368.18100000000004 1729.597 309.063 1675.934 253.17000000000002 1629.206 189.221 1557.47 159.935 1481.429 128.892 1392.227 107.959 1316.841 140.55900000000003 1242.943 172.51600000000002 1218.684 262.054 1171.116 327.01099999999997 1128.08 385.78 1078.607 436.749 1050.6770000000001 504.024 1015.558 588.614 956.673 680.281 988.851 766.033 1020.938 851.544 1125.217 882.117 1207.459 921.8399999999999 1281.196 957.4549999999999 1358.483 976.155 1440 983.9390000000001" fill="#113255"></path></g><defs><mask id="SvgjsMask1000"><rect width="1440" height="560" fill="#ffffff"></rect></mask></defs></svg>